<?xml version="1.0" encoding="UTF-8"?>
<svg xmlns="http://www.w3.org/2000/svg" width="400" height="400" xmlns:xlink="http://www.w3.org/1999/xlink" viewBox="0 0 400 400">
  <defs>
    <style>
      .cls-1 {
        fill: url(#linear-gradient);
      }

      .cls-2 {
        fill: url(#linear-gradient-2);
      }
    </style>
    <linearGradient id="linear-gradient" x1="62.09735" y1="200" x2="337.90265" y2="200" gradientTransform="matrix(1, 0, 0, 1, 0, 0)" gradientUnits="userSpaceOnUse">
      <stop offset="0" stop-color="#93009e"/>
      <stop offset="1" stop-color="#001fba"/>
    </linearGradient>
    <linearGradient id="linear-gradient-2" x1="87.74257" y1="229.55569" x2="312.23462" y2="229.55569" xlink:href="#linear-gradient"/>
  </defs>
  <g id="Background"/>
  <g id="Graphics">
    <g>
      <path class="cls-1" d="M337.86781,131.58605l-.00709-9.49972c.39367-4.02179-1.99943-7.87194-6.5692-10.56761l-97.38546-56.9051-15.94659-9.36095c-.108-.06501-.23002-.11765-.35868-.15626-3.66462-1.69611-8.10904-2.61694-12.87082-2.6643-4.81366-.07014-9.56156,.91042-13.13885,2.62056-.11147,.0368-.35174,.12972-.45627,.18945L77.10625,111.45024l-.45974,.23681c-2.11784,1.25945-4.09283,2.87848-5.85531,4.79556-1.71376,1.81512-3.29523,3.97624-4.7025,6.41942-1.34799,2.34333-2.41392,4.8025-3.1628,7.30707-.76291,2.5364-.82566,4.9921-.82566,7.49335v130.28319c0,.1543,.01403,.28945,.03137,.36139l.00694,9.56986c-.39005,4.02571,2.00305,7.87556,6.56965,10.56625l97.38546,56.90299,15.94991,9.36457c.10769,.06335,.22987,.11599,.35853,.1543,3.66462,1.69641,8.10904,2.61694,12.86735,2.6646,.11855,.00181,.23681,.00181,.35536,.00181v-.0003c4.69541,0,9.29308-.95386,12.78696-2.62207,.11131-.0368,.35174-.13002,.45642-.18945l114.03554-66.20994,.4528-.235c2.11075-1.25568,4.08574-2.87471,5.85169-4.7936,1.71753-1.8207,3.30217-3.97986,4.70597-6.41987,1.34105-2.33277,2.40698-4.79013,3.1628-7.31054,.76306-2.54514,.82566-5.09542,.82566-7.48943V132.01592c0-.06486-.02081-.31252-.03484-.42987Zm-3.53204,130.71517c0,2.21497-.05234,4.37444-.67226,6.45095-.67603,2.25238-1.6302,4.45513-2.8355,6.54597-1.26443,2.19793-2.67863,4.13069-4.22164,5.7636-1.54663,1.68208-3.24983,3.08-4.96027,4.10264l-98.58352,57.32758-15.96756,9.1246c-3.30534,1.56624-7.40194,2.44861-11.79086,2.36083-4.3227-.04223-8.32142-.87543-11.55737-2.40487l-.11147-.04736-113.13341-66.14689c-3.30564-1.94845-5.06103-4.54065-4.8034-7.2858v-9.74542c0-.01584-.03137-.34556-.03137-.36139V137.70245c0-2.2207,.05234-4.38666,.67241-6.45487,.66879-2.23986,1.62311-4.44126,2.83535-6.5425,1.2679-2.20275,2.6821-4.13778,4.21818-5.76541,1.54317-1.67846,3.24651-3.07819,4.9568-4.09902l98.59046-57.33105,15.96741-9.12445c3.30594-1.56443,7.55187-2.47305,11.78754-2.36083,4.32617,.04223,8.32504,.87528,11.56099,2.40472l.11131,.04736,113.12662,66.14674c3.31243,1.95207,5.06796,4.54292,4.80672,7.28641v9.79746c.00332,.13334,.01719,.25611,.03484,.3089v130.2853Z"/>
      <path class="cls-2" d="M308.66427,140.88577c-.07315-.06848-.20212-.16124-.33108-.2454v-.00181c-.14284-.10181-.29623-.20709-.4703-.30151-.2715-.17919-.53983-.29654-.78719-.39669l-.00332,.00181-.06622-.02775-21.69044-12.19404-.03137-.01403c-.10468-.07014-.2264-.1457-.39367-.24917-1.43849-.85069-3.0898-1.18735-4.8485-1.00665-1.7486,.13334-3.56009,.75054-5.36435,1.82582l-79.68349,46.31773-22.66919,12.59902c-.04525,.02112-.09065,.04585-.13575,.07029l-78.65602,46.14608c-3.39614,1.93095-5.41292,4.6568-5.69844,7.68747-.03846,.17376-.06275,.34571-.06275,.4807l.00694,25.93817c-.34148,3.53777,1.72069,6.89831,5.66028,9.22083l91.69381,53.61077c.08356,.04555,.1985,.09653,.31705,.13877,3.05466,1.4136,6.75367,2.18164,10.98964,2.22206,3.90113,0,7.72593-.79609,10.8922-2.3014l92.38688-53.61077c.03484-.0175,.37618-.19261,.4077-.21207,1.76579-1.05085,3.41349-2.40125,4.8835-3.99736,1.42808-1.51013,2.74123-3.30293,3.90837-5.32875,1.12144-1.95403,2.0026-3.99389,2.61935-6.05818,.64436-2.13986,.69669-4.18333,.69669-6.26361v-105.39617c0-2.11014-.36924-3.96538-1.10424-5.53192-.6341-1.32763-1.53276-2.44499-2.46611-3.12223Zm-42.40197,50.18552l18.97334-11.00895v72.30341l-18.87244-11.0646-.10091-50.22986Zm-1.68449,53.34184l15.48429,9.07799,2.81528,1.65101-61.70609,36.00155v-21.57294l43.40651-25.15762Zm-1.78042-3.11318l-41.62609,24.12638v-48.50992l41.52624-24.11054,.09985,48.49409Zm-68.76806-37.49645v124.48474c-2.55993-.23138-4.91472-.83139-6.86543-1.75237l-.10091-.0454-11.65526-6.84763v-126.76669l18.6216,10.92735Zm-22.89875,42.18372v18.31692l-15.69923-9.18734,15.69923-9.12958Zm0-26.36458v21.38832l-19.96627,11.60971-18.31873-10.71859,38.285-22.27944Zm-43.61707,22.21488c-.0006,.02021-.00784,.03891-.00784,.05928,0,.01222,.00452,.02338,.00483,.03545l-.07964-.04646,.08266-.04827Zm-35.46399,7.60315c.42836,.32097,.88478,.63138,1.38977,.92807l77.69099,45.46522v21.31094l-75.53831-44.13383c-2.4278-1.43125-3.72345-3.29584-3.54245-5.28652v-18.28389Zm190.93225-118.10182c.13937,.11569,.34148,.22972,.55386,.31735l15.51476,8.72097c-.47708,.22097-.95794,.47346-1.43849,.75959l-101.43652,58.93258-18.56263-10.8922,19.4821-10.82915,79.73899-46.3497c1.25764-.74541,2.44891-1.16624,3.60881-1.25583,.84647-.09819,1.6302,.05083,2.53911,.59639Z"/>
    </g>
  </g>
  <g id="Explainter_text_hide" data-name="Explainter text_hide"/>
</svg>