<svg xmlns="http://www.w3.org/2000/svg" width="84.973" height="115.902" viewBox="0 0 84.973 115.902">
  <g id="Group_3591" data-name="Group 3591" transform="translate(-1326.047 -361.365)">
    <g id="Group_3590" data-name="Group 3590" transform="translate(1326.047 361.365)">
      <g id="Group_3588" data-name="Group 3588" transform="translate(0.783 0)">
        <g id="Group_3587" data-name="Group 3587">
          <path id="Path_6335" data-name="Path 6335" d="M1368.523,456.667h-.107a9.569,9.569,0,0,1-3.891-.806.484.484,0,0,1-.108-.047l-4.824-2.832-29.45-17.208a3.433,3.433,0,0,1-1.987-3.2l0-2.894a.5.5,0,0,1-.01-.109v-39.4a7.64,7.64,0,0,1,.25-2.266,10.784,10.784,0,0,1,2.379-4.151,7.9,7.9,0,0,1,1.771-1.45l.139-.071,34.483-20.022a1,1,0,0,1,.138-.058,9.2,9.2,0,0,1,3.973-.793,9.57,9.57,0,0,1,3.892.806.487.487,0,0,1,.109.047l4.823,2.831,29.45,17.209a3.433,3.433,0,0,1,1.986,3.2l0,2.873c0,.036.01.11.01.13v39.4a7.747,7.747,0,0,1-.25,2.265,10.471,10.471,0,0,1-.956,2.211,10.331,10.331,0,0,1-1.423,1.941,7.931,7.931,0,0,1-1.77,1.45l-.137.071-34.485,20.023a1.079,1.079,0,0,1-.138.057,9.242,9.242,0,0,1-3.867.793Zm-3.626-1.828.034.014a8.448,8.448,0,0,0,3.5.727,8.025,8.025,0,0,0,3.565-.714l4.829-2.76,29.813-17.336a6.843,6.843,0,0,0,1.5-1.241,9.251,9.251,0,0,0,1.277-1.743,9.374,9.374,0,0,0,.857-1.98,6.756,6.756,0,0,0,.2-1.951v-39.4a.4.4,0,0,1-.011-.093V385.4a2.417,2.417,0,0,0-1.453-2.2l-34.211-20-.033-.014a8.45,8.45,0,0,0-3.5-.727,8.07,8.07,0,0,0-3.565.714l-4.828,2.76-29.815,17.337a6.823,6.823,0,0,0-1.5,1.24,9.712,9.712,0,0,0-2.134,3.722,6.746,6.746,0,0,0-.2,1.952v39.4s.009.1.009.109v2.947a2.42,2.42,0,0,0,1.453,2.2l34.212,20Z" transform="translate(-1328.144 -361.365)" fill="#fff"/>
          <path id="Path_6336" data-name="Path 6336" d="M1416.453,434.651a2.523,2.523,0,0,0-.746-.944.852.852,0,0,0-.1-.074h0a1.347,1.347,0,0,0-.142-.091,1.315,1.315,0,0,0-.238-.12h0l-.021-.008-6.559-3.688-.01,0c-.031-.021-.068-.044-.119-.075a2.359,2.359,0,0,0-1.466-.3,3.74,3.74,0,0,0-1.622.552l-24.1,14.007-6.856,3.81-.041.021-23.786,13.955a3.092,3.092,0,0,0-1.723,2.325.709.709,0,0,0-.019.145l0,7.844a2.982,2.982,0,0,0,1.712,2.789L1378.35,491a.8.8,0,0,0,.1.042,8.081,8.081,0,0,0,3.323.672,7.774,7.774,0,0,0,3.294-.7L1413,474.807l.124-.064a6.621,6.621,0,0,0,1.477-1.209,8.545,8.545,0,0,0,1.182-1.612,8.665,8.665,0,0,0,.792-1.832,6.354,6.354,0,0,0,.211-1.894V436.324A3.912,3.912,0,0,0,1416.453,434.651Zm-13.568,14.232,5.738-3.329v21.865l-5.707-3.346Zm-.509,16.131,4.6,2.7.93.545-18.66,10.887v-6.524Zm-.539-.942-12.589,7.3V456.7l12.558-7.292Zm-20.8-11.339v37.645a6.214,6.214,0,0,1-2.076-.53l-.031-.014-3.525-2.071V449.429Zm-6.925,12.757v5.539l-4.748-2.778Zm0-7.973v6.468l-6.038,3.511-5.54-3.241Zm-13.19,6.718c0,.006,0,.012,0,.018s0,.007,0,.011l-.024-.014Zm-10.724,2.3a4.458,4.458,0,0,0,.42.281l23.494,13.749v6.445l-22.843-13.347a1.767,1.767,0,0,1-1.071-1.6Zm57.739-35.715a.689.689,0,0,0,.167.1l4.692,2.637a4.847,4.847,0,0,0-.435.23L1381.69,451.6l-5.614-3.294,5.891-3.275,24.113-14.017a2.529,2.529,0,0,1,1.092-.38A1.148,1.148,0,0,1,1407.94,430.82Z" transform="translate(-1341.143 -403.933)" fill="#fff"/>
        </g>
      </g>
      <g id="Group_3589" data-name="Group 3589" transform="translate(0 102.473)">
        <path id="Path_6337" data-name="Path 6337" d="M1335.934,638.592h-9.887v12.313h9.9a2.413,2.413,0,0,0,2.41-2.41v-7.476A2.43,2.43,0,0,0,1335.934,638.592Zm-7.477,9.969a.062.062,0,0,1-.065-.065V641a.062.062,0,0,1,.065-.065h7.477A.063.063,0,0,1,1336,641V648.5a.062.062,0,0,1-.065.065Z" transform="translate(-1326.047 -637.477)" fill="#fff"/>
        <path id="Path_6338" data-name="Path 6338" d="M1366.192,638.546h-.054a2.294,2.294,0,0,0-2.291,2.292v7.629a2.412,2.412,0,0,0,2.41,2.41h7.613a2.294,2.294,0,0,0,2.292-2.292v-.053h-9.969Z" transform="translate(-1349.723 -637.448)" fill="#fff"/>
        <path id="Path_6339" data-name="Path 6339" d="M1410.57,638.592h-7.579a2.413,2.413,0,0,0-2.41,2.41V648.5a2.413,2.413,0,0,0,2.41,2.41h7.579a2.294,2.294,0,0,0,2.292-2.292v-.053h-9.87a.065.065,0,0,1-.065-.065V641a.065.065,0,0,1,.065-.065h9.87v-.053A2.294,2.294,0,0,0,1410.57,638.592Z" transform="translate(-1372.731 -637.477)" fill="#fff"/>
        <path id="Path_6340" data-name="Path 6340" d="M1438.955,665.316a1.164,1.164,0,1,0,1.164,1.164A1.165,1.165,0,0,0,1438.955,665.316Z" transform="translate(-1396.037 -654.215)" fill="#fff"/>
        <path id="Path_6341" data-name="Path 6341" d="M1449.982,638.546h-.053a2.294,2.294,0,0,0-2.292,2.292v7.629a2.413,2.413,0,0,0,2.41,2.41h7.612a2.294,2.294,0,0,0,2.292-2.292v-.053h-9.969Z" transform="translate(-1402.203 -637.448)" fill="#fff"/>
        <path id="Path_6342" data-name="Path 6342" d="M1484.19,646.125v8.759h2.328v-9.94h-1.147A1.181,1.181,0,0,0,1484.19,646.125Z" transform="translate(-1425.098 -641.455)" fill="#fff"/>
        <path id="Path_6343" data-name="Path 6343" d="M1485.354,635.607a1.173,1.173,0,1,0,1.164,1.164A1.169,1.169,0,0,0,1485.354,635.607Z" transform="translate(-1425.098 -635.607)" fill="#fff"/>
        <path id="Path_6344" data-name="Path 6344" d="M1502.876,644.944h-7.7v9.94h2.328v-7.547a.062.062,0,0,1,.065-.065h5.306a.062.062,0,0,1,.065.065v7.547h2.328v-7.547A2.4,2.4,0,0,0,1502.876,644.944Z" transform="translate(-1431.979 -641.455)" fill="#fff"/>
        <path id="Path_6345" data-name="Path 6345" d="M1536.734,639.544H1534.9a1.456,1.456,0,0,0-1.068.467l-3.078,3.331h-1.669V638.6a2.274,2.274,0,0,0-2.275-2.274h-.053v13.161h2.328v-3.8h1.669l3.037,3.286a1.59,1.59,0,0,0,1.168.511h1.771a1.686,1.686,0,0,0-.437-1.132l-3.478-3.837,3.478-3.838A1.685,1.685,0,0,0,1536.734,639.544Z" transform="translate(-1451.761 -636.055)" fill="#fff"/>
      </g>
    </g>
  </g>
</svg>
